<mxfile host="app.diagrams.net" agent="Mozilla/5.0 (Windows NT 10.0; Win64; x64) AppleWebKit/537.36 (KHTML, like Gecko) Chrome/132.0.0.0 Safari/537.36 Edg/132.0.0.0" version="26.0.8">
  <diagram name="Page-1" id="Jqqfvi3ifh9y3ICAVzHc">
    <mxGraphModel dx="1543" dy="1928" grid="1" gridSize="10" guides="1" tooltips="1" connect="1" arrows="1" fold="1" page="1" pageScale="1" pageWidth="850" pageHeight="1100" math="0" shadow="0">
      <root>
        <mxCell id="0" />
        <mxCell id="1" parent="0" />
        <mxCell id="Px6dL3QAvhwqzybfhADh-1" value="User" style="swimlane;fontStyle=1;align=center;verticalAlign=top;childLayout=stackLayout;horizontal=1;startSize=26;horizontalStack=0;resizeParent=1;resizeParentMax=0;resizeLast=0;collapsible=1;marginBottom=0;whiteSpace=wrap;html=1;" vertex="1" parent="1">
          <mxGeometry x="650" y="-380" width="160" height="180" as="geometry" />
        </mxCell>
        <mxCell id="Px6dL3QAvhwqzybfhADh-2" value="name:string&lt;div&gt;email:string&lt;/div&gt;&lt;div&gt;pwd:string&lt;/div&gt;&lt;div&gt;id:id&lt;/div&gt;" style="text;strokeColor=none;fillColor=none;align=left;verticalAlign=top;spacingLeft=4;spacingRight=4;overflow=hidden;rotatable=0;points=[[0,0.5],[1,0.5]];portConstraint=eastwest;whiteSpace=wrap;html=1;" vertex="1" parent="Px6dL3QAvhwqzybfhADh-1">
          <mxGeometry y="26" width="160" height="74" as="geometry" />
        </mxCell>
        <mxCell id="Px6dL3QAvhwqzybfhADh-3" value="" style="line;strokeWidth=1;fillColor=none;align=left;verticalAlign=middle;spacingTop=-1;spacingLeft=3;spacingRight=3;rotatable=0;labelPosition=right;points=[];portConstraint=eastwest;strokeColor=inherit;" vertex="1" parent="Px6dL3QAvhwqzybfhADh-1">
          <mxGeometry y="100" width="160" height="8" as="geometry" />
        </mxCell>
        <mxCell id="Px6dL3QAvhwqzybfhADh-4" value="respondToInvitation();&lt;div&gt;respondToMeeting();&lt;/div&gt;&lt;div&gt;checkCalendar();&lt;/div&gt;&lt;div&gt;&lt;br&gt;&lt;/div&gt;" style="text;strokeColor=none;fillColor=none;align=left;verticalAlign=top;spacingLeft=4;spacingRight=4;overflow=hidden;rotatable=0;points=[[0,0.5],[1,0.5]];portConstraint=eastwest;whiteSpace=wrap;html=1;" vertex="1" parent="Px6dL3QAvhwqzybfhADh-1">
          <mxGeometry y="108" width="160" height="72" as="geometry" />
        </mxCell>
        <mxCell id="Px6dL3QAvhwqzybfhADh-5" value="Interval" style="swimlane;fontStyle=1;align=center;verticalAlign=top;childLayout=stackLayout;horizontal=1;startSize=26;horizontalStack=0;resizeParent=1;resizeParentMax=0;resizeLast=0;collapsible=1;marginBottom=0;whiteSpace=wrap;html=1;" vertex="1" parent="1">
          <mxGeometry x="130" y="40" width="160" height="104" as="geometry" />
        </mxCell>
        <mxCell id="Px6dL3QAvhwqzybfhADh-6" value="startTime:string&lt;div&gt;endTime:string&lt;/div&gt;" style="text;strokeColor=none;fillColor=none;align=left;verticalAlign=top;spacingLeft=4;spacingRight=4;overflow=hidden;rotatable=0;points=[[0,0.5],[1,0.5]];portConstraint=eastwest;whiteSpace=wrap;html=1;" vertex="1" parent="Px6dL3QAvhwqzybfhADh-5">
          <mxGeometry y="26" width="160" height="44" as="geometry" />
        </mxCell>
        <mxCell id="Px6dL3QAvhwqzybfhADh-7" value="" style="line;strokeWidth=1;fillColor=none;align=left;verticalAlign=middle;spacingTop=-1;spacingLeft=3;spacingRight=3;rotatable=0;labelPosition=right;points=[];portConstraint=eastwest;strokeColor=inherit;" vertex="1" parent="Px6dL3QAvhwqzybfhADh-5">
          <mxGeometry y="70" width="160" height="8" as="geometry" />
        </mxCell>
        <mxCell id="Px6dL3QAvhwqzybfhADh-8" value="+ method(type): type" style="text;strokeColor=none;fillColor=none;align=left;verticalAlign=top;spacingLeft=4;spacingRight=4;overflow=hidden;rotatable=0;points=[[0,0.5],[1,0.5]];portConstraint=eastwest;whiteSpace=wrap;html=1;" vertex="1" parent="Px6dL3QAvhwqzybfhADh-5">
          <mxGeometry y="78" width="160" height="26" as="geometry" />
        </mxCell>
        <mxCell id="Px6dL3QAvhwqzybfhADh-9" value="MeetingRoom" style="swimlane;fontStyle=1;align=center;verticalAlign=top;childLayout=stackLayout;horizontal=1;startSize=26;horizontalStack=0;resizeParent=1;resizeParentMax=0;resizeLast=0;collapsible=1;marginBottom=0;whiteSpace=wrap;html=1;" vertex="1" parent="1">
          <mxGeometry x="380" y="10" width="170" height="144" as="geometry" />
        </mxCell>
        <mxCell id="Px6dL3QAvhwqzybfhADh-10" value="id:int&lt;div&gt;capacity:int&lt;/div&gt;&lt;div&gt;bookedInterval:(listInterval)&lt;/div&gt;&lt;div&gt;isAvailable:bool/meetingState&lt;/div&gt;" style="text;strokeColor=none;fillColor=none;align=left;verticalAlign=top;spacingLeft=4;spacingRight=4;overflow=hidden;rotatable=0;points=[[0,0.5],[1,0.5]];portConstraint=eastwest;whiteSpace=wrap;html=1;" vertex="1" parent="Px6dL3QAvhwqzybfhADh-9">
          <mxGeometry y="26" width="170" height="84" as="geometry" />
        </mxCell>
        <mxCell id="Px6dL3QAvhwqzybfhADh-11" value="" style="line;strokeWidth=1;fillColor=none;align=left;verticalAlign=middle;spacingTop=-1;spacingLeft=3;spacingRight=3;rotatable=0;labelPosition=right;points=[];portConstraint=eastwest;strokeColor=inherit;" vertex="1" parent="Px6dL3QAvhwqzybfhADh-9">
          <mxGeometry y="110" width="170" height="8" as="geometry" />
        </mxCell>
        <mxCell id="Px6dL3QAvhwqzybfhADh-12" value="+ method(type): type" style="text;strokeColor=none;fillColor=none;align=left;verticalAlign=top;spacingLeft=4;spacingRight=4;overflow=hidden;rotatable=0;points=[[0,0.5],[1,0.5]];portConstraint=eastwest;whiteSpace=wrap;html=1;" vertex="1" parent="Px6dL3QAvhwqzybfhADh-9">
          <mxGeometry y="118" width="170" height="26" as="geometry" />
        </mxCell>
        <mxCell id="Px6dL3QAvhwqzybfhADh-13" value="Calendar" style="swimlane;fontStyle=1;align=center;verticalAlign=top;childLayout=stackLayout;horizontal=1;startSize=26;horizontalStack=0;resizeParent=1;resizeParentMax=0;resizeLast=0;collapsible=1;marginBottom=0;whiteSpace=wrap;html=1;" vertex="1" parent="1">
          <mxGeometry x="370" y="-480" width="160" height="124" as="geometry" />
        </mxCell>
        <mxCell id="Px6dL3QAvhwqzybfhADh-14" value="meeting:(list)Meeting" style="text;strokeColor=none;fillColor=none;align=left;verticalAlign=top;spacingLeft=4;spacingRight=4;overflow=hidden;rotatable=0;points=[[0,0.5],[1,0.5]];portConstraint=eastwest;whiteSpace=wrap;html=1;" vertex="1" parent="Px6dL3QAvhwqzybfhADh-13">
          <mxGeometry y="26" width="160" height="64" as="geometry" />
        </mxCell>
        <mxCell id="Px6dL3QAvhwqzybfhADh-15" value="" style="line;strokeWidth=1;fillColor=none;align=left;verticalAlign=middle;spacingTop=-1;spacingLeft=3;spacingRight=3;rotatable=0;labelPosition=right;points=[];portConstraint=eastwest;strokeColor=inherit;" vertex="1" parent="Px6dL3QAvhwqzybfhADh-13">
          <mxGeometry y="90" width="160" height="8" as="geometry" />
        </mxCell>
        <mxCell id="Px6dL3QAvhwqzybfhADh-16" value="+ method(type): type" style="text;strokeColor=none;fillColor=none;align=left;verticalAlign=top;spacingLeft=4;spacingRight=4;overflow=hidden;rotatable=0;points=[[0,0.5],[1,0.5]];portConstraint=eastwest;whiteSpace=wrap;html=1;" vertex="1" parent="Px6dL3QAvhwqzybfhADh-13">
          <mxGeometry y="98" width="160" height="26" as="geometry" />
        </mxCell>
        <mxCell id="Px6dL3QAvhwqzybfhADh-17" value="Meeting" style="swimlane;fontStyle=1;align=center;verticalAlign=top;childLayout=stackLayout;horizontal=1;startSize=26;horizontalStack=0;resizeParent=1;resizeParentMax=0;resizeLast=0;collapsible=1;marginBottom=0;whiteSpace=wrap;html=1;" vertex="1" parent="1">
          <mxGeometry x="370" y="-720" width="160" height="152" as="geometry" />
        </mxCell>
        <mxCell id="Px6dL3QAvhwqzybfhADh-18" value="id:int&lt;div&gt;room:meetingRoom&lt;/div&gt;&lt;div&gt;time:interval&lt;/div&gt;&lt;div&gt;subject:String&lt;/div&gt;&lt;div&gt;invites:(list)User&lt;/div&gt;" style="text;strokeColor=none;fillColor=none;align=left;verticalAlign=top;spacingLeft=4;spacingRight=4;overflow=hidden;rotatable=0;points=[[0,0.5],[1,0.5]];portConstraint=eastwest;whiteSpace=wrap;html=1;" vertex="1" parent="Px6dL3QAvhwqzybfhADh-17">
          <mxGeometry y="26" width="160" height="92" as="geometry" />
        </mxCell>
        <mxCell id="Px6dL3QAvhwqzybfhADh-19" value="" style="line;strokeWidth=1;fillColor=none;align=left;verticalAlign=middle;spacingTop=-1;spacingLeft=3;spacingRight=3;rotatable=0;labelPosition=right;points=[];portConstraint=eastwest;strokeColor=inherit;" vertex="1" parent="Px6dL3QAvhwqzybfhADh-17">
          <mxGeometry y="118" width="160" height="8" as="geometry" />
        </mxCell>
        <mxCell id="Px6dL3QAvhwqzybfhADh-20" value="addInMeeting():" style="text;strokeColor=none;fillColor=none;align=left;verticalAlign=top;spacingLeft=4;spacingRight=4;overflow=hidden;rotatable=0;points=[[0,0.5],[1,0.5]];portConstraint=eastwest;whiteSpace=wrap;html=1;" vertex="1" parent="Px6dL3QAvhwqzybfhADh-17">
          <mxGeometry y="126" width="160" height="26" as="geometry" />
        </mxCell>
        <mxCell id="Px6dL3QAvhwqzybfhADh-21" value="Nootification" style="swimlane;fontStyle=1;align=center;verticalAlign=top;childLayout=stackLayout;horizontal=1;startSize=26;horizontalStack=0;resizeParent=1;resizeParentMax=0;resizeLast=0;collapsible=1;marginBottom=0;whiteSpace=wrap;html=1;" vertex="1" parent="1">
          <mxGeometry x="-160" y="-180" width="160" height="160" as="geometry" />
        </mxCell>
        <mxCell id="Px6dL3QAvhwqzybfhADh-22" value="id:int&lt;div&gt;notifacation:enum/string&lt;/div&gt;&lt;div&gt;createTimeStamp():&lt;/div&gt;" style="text;strokeColor=none;fillColor=none;align=left;verticalAlign=top;spacingLeft=4;spacingRight=4;overflow=hidden;rotatable=0;points=[[0,0.5],[1,0.5]];portConstraint=eastwest;whiteSpace=wrap;html=1;" vertex="1" parent="Px6dL3QAvhwqzybfhADh-21">
          <mxGeometry y="26" width="160" height="74" as="geometry" />
        </mxCell>
        <mxCell id="Px6dL3QAvhwqzybfhADh-23" value="" style="line;strokeWidth=1;fillColor=none;align=left;verticalAlign=middle;spacingTop=-1;spacingLeft=3;spacingRight=3;rotatable=0;labelPosition=right;points=[];portConstraint=eastwest;strokeColor=inherit;" vertex="1" parent="Px6dL3QAvhwqzybfhADh-21">
          <mxGeometry y="100" width="160" height="8" as="geometry" />
        </mxCell>
        <mxCell id="Px6dL3QAvhwqzybfhADh-24" value="sendInviteNotification():&lt;div&gt;sendCancelNotification():&lt;/div&gt;" style="text;strokeColor=none;fillColor=none;align=left;verticalAlign=top;spacingLeft=4;spacingRight=4;overflow=hidden;rotatable=0;points=[[0,0.5],[1,0.5]];portConstraint=eastwest;whiteSpace=wrap;html=1;" vertex="1" parent="Px6dL3QAvhwqzybfhADh-21">
          <mxGeometry y="108" width="160" height="52" as="geometry" />
        </mxCell>
        <mxCell id="Px6dL3QAvhwqzybfhADh-25" value="MeetingSchedular" style="swimlane;fontStyle=1;align=center;verticalAlign=top;childLayout=stackLayout;horizontal=1;startSize=26;horizontalStack=0;resizeParent=1;resizeParentMax=0;resizeLast=0;collapsible=1;marginBottom=0;whiteSpace=wrap;html=1;" vertex="1" parent="1">
          <mxGeometry x="380" y="-290" width="160" height="200" as="geometry" />
        </mxCell>
        <mxCell id="Px6dL3QAvhwqzybfhADh-35" value="" style="endArrow=diamondThin;endFill=0;endSize=24;html=1;rounded=0;" edge="1" parent="Px6dL3QAvhwqzybfhADh-25">
          <mxGeometry width="160" relative="1" as="geometry">
            <mxPoint x="268" y="-30" as="sourcePoint" />
            <mxPoint x="160" y="40" as="targetPoint" />
            <Array as="points">
              <mxPoint x="240" y="-30" />
              <mxPoint x="240" y="40" />
            </Array>
          </mxGeometry>
        </mxCell>
        <mxCell id="Px6dL3QAvhwqzybfhADh-26" value="room:Room(list)&lt;div&gt;&lt;div&gt;calendar:Calendar&lt;/div&gt;&lt;/div&gt;&lt;div&gt;organizer:User&lt;/div&gt;" style="text;strokeColor=none;fillColor=none;align=left;verticalAlign=top;spacingLeft=4;spacingRight=4;overflow=hidden;rotatable=0;points=[[0,0.5],[1,0.5]];portConstraint=eastwest;whiteSpace=wrap;html=1;" vertex="1" parent="Px6dL3QAvhwqzybfhADh-25">
          <mxGeometry y="26" width="160" height="82" as="geometry" />
        </mxCell>
        <mxCell id="Px6dL3QAvhwqzybfhADh-27" value="" style="line;strokeWidth=1;fillColor=none;align=left;verticalAlign=middle;spacingTop=-1;spacingLeft=3;spacingRight=3;rotatable=0;labelPosition=right;points=[];portConstraint=eastwest;strokeColor=inherit;" vertex="1" parent="Px6dL3QAvhwqzybfhADh-25">
          <mxGeometry y="108" width="160" height="8" as="geometry" />
        </mxCell>
        <mxCell id="Px6dL3QAvhwqzybfhADh-28" value="schedlueMeeting():&lt;div&gt;bookRoom():&lt;/div&gt;&lt;div&gt;cancelRoom():&lt;/div&gt;&lt;div&gt;releaseRoom():&lt;/div&gt;" style="text;strokeColor=none;fillColor=none;align=left;verticalAlign=top;spacingLeft=4;spacingRight=4;overflow=hidden;rotatable=0;points=[[0,0.5],[1,0.5]];portConstraint=eastwest;whiteSpace=wrap;html=1;" vertex="1" parent="Px6dL3QAvhwqzybfhADh-25">
          <mxGeometry y="116" width="160" height="84" as="geometry" />
        </mxCell>
        <mxCell id="Px6dL3QAvhwqzybfhADh-29" value="MeetingSchedularSystem" style="swimlane;fontStyle=1;align=center;verticalAlign=top;childLayout=stackLayout;horizontal=1;startSize=26;horizontalStack=0;resizeParent=1;resizeParentMax=0;resizeLast=0;collapsible=1;marginBottom=0;whiteSpace=wrap;html=1;" vertex="1" parent="1">
          <mxGeometry x="40" y="-370" width="190" height="200" as="geometry" />
        </mxCell>
        <mxCell id="Px6dL3QAvhwqzybfhADh-30" value="schedular: MeetingSchedular&lt;div&gt;users:(list)User&lt;/div&gt;&lt;div&gt;rooms:(liost)MeetingRoom&lt;/div&gt;" style="text;strokeColor=none;fillColor=none;align=left;verticalAlign=top;spacingLeft=4;spacingRight=4;overflow=hidden;rotatable=0;points=[[0,0.5],[1,0.5]];portConstraint=eastwest;whiteSpace=wrap;html=1;" vertex="1" parent="Px6dL3QAvhwqzybfhADh-29">
          <mxGeometry y="26" width="190" height="74" as="geometry" />
        </mxCell>
        <mxCell id="Px6dL3QAvhwqzybfhADh-31" value="" style="line;strokeWidth=1;fillColor=none;align=left;verticalAlign=middle;spacingTop=-1;spacingLeft=3;spacingRight=3;rotatable=0;labelPosition=right;points=[];portConstraint=eastwest;strokeColor=inherit;" vertex="1" parent="Px6dL3QAvhwqzybfhADh-29">
          <mxGeometry y="100" width="190" height="20" as="geometry" />
        </mxCell>
        <mxCell id="Px6dL3QAvhwqzybfhADh-32" value="sendInviteNotification():&lt;div&gt;sendCancelNotification():&lt;/div&gt;&lt;div&gt;addRoom():&lt;/div&gt;&lt;div&gt;removeRoom():&lt;/div&gt;" style="text;strokeColor=none;fillColor=none;align=left;verticalAlign=top;spacingLeft=4;spacingRight=4;overflow=hidden;rotatable=0;points=[[0,0.5],[1,0.5]];portConstraint=eastwest;whiteSpace=wrap;html=1;" vertex="1" parent="Px6dL3QAvhwqzybfhADh-29">
          <mxGeometry y="120" width="190" height="80" as="geometry" />
        </mxCell>
        <mxCell id="Px6dL3QAvhwqzybfhADh-33" value="" style="endArrow=diamondThin;endFill=0;endSize=24;html=1;rounded=0;exitX=0;exitY=0.78;exitDx=0;exitDy=0;exitPerimeter=0;" edge="1" parent="1" source="Px6dL3QAvhwqzybfhADh-26">
          <mxGeometry width="160" relative="1" as="geometry">
            <mxPoint x="370" y="-210" as="sourcePoint" />
            <mxPoint x="230" y="-280" as="targetPoint" />
            <Array as="points">
              <mxPoint x="330" y="-200" />
              <mxPoint x="330" y="-280" />
            </Array>
          </mxGeometry>
        </mxCell>
        <mxCell id="Px6dL3QAvhwqzybfhADh-36" value="" style="endArrow=diamondThin;endFill=1;endSize=24;html=1;rounded=0;" edge="1" parent="1">
          <mxGeometry width="160" relative="1" as="geometry">
            <mxPoint x="470" y="-350" as="sourcePoint" />
            <mxPoint x="470" y="-290" as="targetPoint" />
          </mxGeometry>
        </mxCell>
        <mxCell id="Px6dL3QAvhwqzybfhADh-37" value="" style="endArrow=diamondThin;endFill=1;endSize=24;html=1;rounded=0;exitX=0.809;exitY=1.005;exitDx=0;exitDy=0;exitPerimeter=0;entryX=0.813;entryY=0;entryDx=0;entryDy=0;entryPerimeter=0;" edge="1" parent="1" source="Px6dL3QAvhwqzybfhADh-20" target="Px6dL3QAvhwqzybfhADh-13">
          <mxGeometry width="160" relative="1" as="geometry">
            <mxPoint x="340" y="-490" as="sourcePoint" />
            <mxPoint x="500" y="-490" as="targetPoint" />
          </mxGeometry>
        </mxCell>
        <mxCell id="Px6dL3QAvhwqzybfhADh-38" value="" style="endArrow=diamondThin;endFill=0;endSize=24;html=1;rounded=0;entryX=-0.018;entryY=0.316;entryDx=0;entryDy=0;entryPerimeter=0;" edge="1" parent="1" target="Px6dL3QAvhwqzybfhADh-10">
          <mxGeometry width="160" relative="1" as="geometry">
            <mxPoint x="290" y="110" as="sourcePoint" />
            <mxPoint x="420" y="80" as="targetPoint" />
            <Array as="points">
              <mxPoint x="340" y="110" />
              <mxPoint x="340" y="63" />
            </Array>
          </mxGeometry>
        </mxCell>
        <mxCell id="Px6dL3QAvhwqzybfhADh-40" value="" style="endArrow=diamondThin;endFill=1;endSize=24;html=1;rounded=0;exitX=0.706;exitY=0;exitDx=0;exitDy=0;exitPerimeter=0;" edge="1" parent="1" source="Px6dL3QAvhwqzybfhADh-9">
          <mxGeometry width="160" relative="1" as="geometry">
            <mxPoint x="340" y="-80" as="sourcePoint" />
            <mxPoint x="500" y="-90" as="targetPoint" />
          </mxGeometry>
        </mxCell>
        <mxCell id="Px6dL3QAvhwqzybfhADh-41" value="" style="endArrow=diamondThin;endFill=1;endSize=24;html=1;rounded=0;" edge="1" parent="1">
          <mxGeometry width="160" relative="1" as="geometry">
            <mxPoint x="380" y="-200" as="sourcePoint" />
            <mxPoint x="230" y="-280" as="targetPoint" />
            <Array as="points">
              <mxPoint x="330" y="-200" />
              <mxPoint x="330" y="-280" />
            </Array>
          </mxGeometry>
        </mxCell>
        <mxCell id="Px6dL3QAvhwqzybfhADh-42" value="" style="endArrow=open;endFill=1;endSize=12;html=1;rounded=0;exitX=-0.006;exitY=0.845;exitDx=0;exitDy=0;exitPerimeter=0;" edge="1" parent="1" source="Px6dL3QAvhwqzybfhADh-30">
          <mxGeometry width="160" relative="1" as="geometry">
            <mxPoint x="10" y="-280" as="sourcePoint" />
            <mxPoint x="-100" y="-180" as="targetPoint" />
            <Array as="points">
              <mxPoint x="-100" y="-280" />
            </Array>
          </mxGeometry>
        </mxCell>
        <mxCell id="Px6dL3QAvhwqzybfhADh-43" value="" style="endArrow=open;endFill=1;endSize=12;html=1;rounded=0;entryX=0.446;entryY=1.077;entryDx=0;entryDy=0;entryPerimeter=0;" edge="1" parent="1" target="Px6dL3QAvhwqzybfhADh-4">
          <mxGeometry width="160" relative="1" as="geometry">
            <mxPoint x="-100" y="-18" as="sourcePoint" />
            <mxPoint x="781.1429268973214" y="170" as="targetPoint" />
            <Array as="points">
              <mxPoint x="-100" y="170" />
              <mxPoint x="721" y="170" />
            </Array>
          </mxGeometry>
        </mxCell>
      </root>
    </mxGraphModel>
  </diagram>
</mxfile>
